<svg xmlns="http://www.w3.org/2000/svg" width="1000" height="340" viewBox="0 0 1000 340" role="img" aria-label="Contribution activity over the last 12 months"><title>Contribution activity over the last 12 months</title><defs><linearGradient id="acbg" x1="0" y1="0" x2="1" y2="1"><stop offset="0" stop-color="#0c2a43"/><stop offset="1" stop-color="#14405f"/></linearGradient><linearGradient id="acar" x1="0" y1="0" x2="0" y2="1"><stop offset="0" stop-color="#38bdf8" stop-opacity="0.55"/><stop offset="1" stop-color="#38bdf8" stop-opacity="0"/></linearGradient><linearGradient id="acln" x1="0" x2="1"><stop offset="0" stop-color="#7dd3fc"/><stop offset="1" stop-color="#e0f4ff"/></linearGradient><radialGradient id="acgl"><stop offset="0" stop-color="#bae6fd" stop-opacity="0.9"/><stop offset="1" stop-color="#38bdf8" stop-opacity="0"/></radialGradient><radialGradient id="acgl2"><stop offset="0" stop-color="#38bdf8" stop-opacity="0.22"/><stop offset="1" stop-color="#38bdf8" stop-opacity="0"/></radialGradient><clipPath id="acc"><rect width="1000" height="340" rx="22"/></clipPath><clipPath id="acr"><rect x="250" y="76" width="0" height="210"><animate attributeName="width" from="0" to="740" dur="2.6s" begin="0.6s" fill="freeze"/></rect></clipPath></defs><g clip-path="url(#acc)"><rect width="1000" height="340" fill="url(#acbg)"/><circle cx="880" cy="60" r="260" fill="url(#acgl2)"><animateTransform attributeName="transform" type="translate" values="0 0;-40 30;0 0" dur="12s" repeatCount="indefinite"/></circle></g><rect x="8" y="8" width="984" height="324" rx="18" fill="none" stroke="#38bdf8" stroke-opacity="0.55" stroke-width="1.6" stroke-dasharray="7 7" stroke-linecap="round"><animate attributeName="stroke-dashoffset" from="0" to="-28" dur="3s" repeatCount="indefinite"/></rect><circle cx="150" cy="188" r="52" fill="none" stroke="#38bdf8" stroke-opacity="0.5" stroke-dasharray="2 7" stroke-linecap="round"><animateTransform attributeName="transform" type="rotate" values="0 150 188;360 150 188" dur="18s" repeatCount="indefinite"/></circle><circle cx="150" cy="188" r="40" fill="none" stroke="#7dd3fc" stroke-opacity="0.35" stroke-dasharray="2 7" stroke-linecap="round"><animateTransform attributeName="transform" type="rotate" values="360 150 188;0 150 188" dur="14s" repeatCount="indefinite"/></circle><text x="32" y="46" font-family="'Segoe UI','Helvetica Neue',Helvetica,Arial,sans-serif" font-size="12" font-weight="800" letter-spacing="2" fill="#7dd3fc" opacity="0"><animate attributeName="opacity" from="0" to="1" dur="0.6s" begin="0.1s" fill="freeze"/>CONTRIBUTION ACTIVITY</text><text x="32" y="68" font-family="'Segoe UI','Helvetica Neue',Helvetica,Arial,sans-serif" font-size="12" fill="#e0f4ff" fill-opacity="0.7" opacity="0"><animate attributeName="opacity" from="0" to="1" dur="0.6s" begin="0.2s" fill="freeze"/>Last 12 months · weekly total</text><text x="150" y="196" text-anchor="middle" font-family="'Segoe UI','Helvetica Neue',Helvetica,Arial,sans-serif" font-size="30" font-weight="800" fill="#ffffff" opacity="0"><animate attributeName="opacity" from="0" to="1" dur="0.6s" begin="0.5s" fill="freeze"/>270</text><text x="150" y="214" text-anchor="middle" font-family="'Segoe UI','Helvetica Neue',Helvetica,Arial,sans-serif" font-size="10" font-weight="700" letter-spacing="1.2" fill="#7dd3fc" opacity="0"><animate attributeName="opacity" from="0" to="1" dur="0.6s" begin="0.6s" fill="freeze"/>CONTRIBUTIONS</text><g opacity="0"><animate attributeName="opacity" from="0" to="1" dur="0.6s" begin="0.9s" fill="freeze"/><text x="36" y="0" font-size="1"></text></g><g opacity="0"><animate attributeName="opacity" from="0" to="1" dur="0.6s" begin="1.1s" fill="freeze"/><text x="36" y="0" font-size="1"></text></g><g opacity="0"><animate attributeName="opacity" from="0" to="1" dur="0.6s" begin="1.3s" fill="freeze"/><text x="36" y="0" font-size="1"></text></g><g opacity="0"><animate attributeName="opacity" from="0" to="1" dur="0.6s" begin="1.0s" fill="freeze"/><text x="36" y="264" font-family="'Segoe UI','Helvetica Neue',Helvetica,Arial,sans-serif" font-size="11" fill="#e0f4ff" fill-opacity="0.7">Active days</text><text x="230" y="264" text-anchor="end" font-family="'Segoe UI','Helvetica Neue',Helvetica,Arial,sans-serif" font-size="12" font-weight="800" fill="#ffffff">41</text><text x="36" y="282" font-family="'Segoe UI','Helvetica Neue',Helvetica,Arial,sans-serif" font-size="11" fill="#e0f4ff" fill-opacity="0.7">Best day</text><text x="230" y="282" text-anchor="end" font-family="'Segoe UI','Helvetica Neue',Helvetica,Arial,sans-serif" font-size="12" font-weight="800" fill="#ffffff">27</text><text x="36" y="300" font-family="'Segoe UI','Helvetica Neue',Helvetica,Arial,sans-serif" font-size="11" fill="#e0f4ff" fill-opacity="0.7">Longest streak</text><text x="230" y="300" text-anchor="end" font-family="'Segoe UI','Helvetica Neue',Helvetica,Arial,sans-serif" font-size="12" font-weight="800" fill="#ffffff">21d</text></g><g opacity="0"><animate attributeName="opacity" from="0" to="1" dur="0.6s" begin="0.3s" fill="freeze"/><line x1="250" x2="960" y1="276.0" y2="276.0" stroke="#7dd3fc" stroke-opacity="0.16" stroke-dasharray="3 6"/><text x="240" y="280.0" text-anchor="end" font-family="'Segoe UI','Helvetica Neue',Helvetica,Arial,sans-serif" font-size="10" fill="#7dd3fc" fill-opacity="0.8">0</text></g><g opacity="0"><animate attributeName="opacity" from="0" to="1" dur="0.6s" begin="0.4s" fill="freeze"/><line x1="250" x2="960" y1="231.0" y2="231.0" stroke="#7dd3fc" stroke-opacity="0.16" stroke-dasharray="3 6"/><text x="240" y="235.0" text-anchor="end" font-family="'Segoe UI','Helvetica Neue',Helvetica,Arial,sans-serif" font-size="10" fill="#7dd3fc" fill-opacity="0.8">20</text></g><g opacity="0"><animate attributeName="opacity" from="0" to="1" dur="0.6s" begin="0.5s" fill="freeze"/><line x1="250" x2="960" y1="186.0" y2="186.0" stroke="#7dd3fc" stroke-opacity="0.16" stroke-dasharray="3 6"/><text x="240" y="190.0" text-anchor="end" font-family="'Segoe UI','Helvetica Neue',Helvetica,Arial,sans-serif" font-size="10" fill="#7dd3fc" fill-opacity="0.8">40</text></g><g opacity="0"><animate attributeName="opacity" from="0" to="1" dur="0.6s" begin="0.6000000000000001s" fill="freeze"/><line x1="250" x2="960" y1="141.0" y2="141.0" stroke="#7dd3fc" stroke-opacity="0.16" stroke-dasharray="3 6"/><text x="240" y="145.0" text-anchor="end" font-family="'Segoe UI','Helvetica Neue',Helvetica,Arial,sans-serif" font-size="10" fill="#7dd3fc" fill-opacity="0.8">60</text></g><g opacity="0"><animate attributeName="opacity" from="0" to="1" dur="0.6s" begin="0.7s" fill="freeze"/><line x1="250" x2="960" y1="96.0" y2="96.0" stroke="#7dd3fc" stroke-opacity="0.16" stroke-dasharray="3 6"/><text x="240" y="100.0" text-anchor="end" font-family="'Segoe UI','Helvetica Neue',Helvetica,Arial,sans-serif" font-size="10" fill="#7dd3fc" fill-opacity="0.8">80</text></g><text x="250.0" y="298" text-anchor="middle" font-family="'Segoe UI','Helvetica Neue',Helvetica,Arial,sans-serif" font-size="10" fill="#7dd3fc" fill-opacity="0.85" opacity="0"><animate attributeName="opacity" from="0" to="1" dur="0.6s" begin="0.5s" fill="freeze"/>Oct</text><text x="304.6" y="298" text-anchor="middle" font-family="'Segoe UI','Helvetica Neue',Helvetica,Arial,sans-serif" font-size="10" fill="#7dd3fc" fill-opacity="0.85" opacity="0"><animate attributeName="opacity" from="0" to="1" dur="0.6s" begin="0.6000000000000001s" fill="freeze"/>Nov</text><text x="372.9" y="298" text-anchor="middle" font-family="'Segoe UI','Helvetica Neue',Helvetica,Arial,sans-serif" font-size="10" fill="#7dd3fc" fill-opacity="0.85" opacity="0"><animate attributeName="opacity" from="0" to="1" dur="0.6s" begin="0.7000000000000001s" fill="freeze"/>Dec</text><text x="427.5" y="298" text-anchor="middle" font-family="'Segoe UI','Helvetica Neue',Helvetica,Arial,sans-serif" font-size="10" fill="#7dd3fc" fill-opacity="0.85" opacity="0"><animate attributeName="opacity" from="0" to="1" dur="0.6s" begin="0.8s" fill="freeze"/>Jan</text><text x="482.1" y="298" text-anchor="middle" font-family="'Segoe UI','Helvetica Neue',Helvetica,Arial,sans-serif" font-size="10" fill="#7dd3fc" fill-opacity="0.85" opacity="0"><animate attributeName="opacity" from="0" to="1" dur="0.6s" begin="0.9s" fill="freeze"/>Feb</text><text x="536.7" y="298" text-anchor="middle" font-family="'Segoe UI','Helvetica Neue',Helvetica,Arial,sans-serif" font-size="10" fill="#7dd3fc" fill-opacity="0.85" opacity="0"><animate attributeName="opacity" from="0" to="1" dur="0.6s" begin="1.0s" fill="freeze"/>Mar</text><text x="605.0" y="298" text-anchor="middle" font-family="'Segoe UI','Helvetica Neue',Helvetica,Arial,sans-serif" font-size="10" fill="#7dd3fc" fill-opacity="0.85" opacity="0"><animate attributeName="opacity" from="0" to="1" dur="0.6s" begin="1.1s" fill="freeze"/>Apr</text><text x="659.6" y="298" text-anchor="middle" font-family="'Segoe UI','Helvetica Neue',Helvetica,Arial,sans-serif" font-size="10" fill="#7dd3fc" fill-opacity="0.85" opacity="0"><animate attributeName="opacity" from="0" to="1" dur="0.6s" begin="1.2000000000000002s" fill="freeze"/>May</text><text x="727.9" y="298" text-anchor="middle" font-family="'Segoe UI','Helvetica Neue',Helvetica,Arial,sans-serif" font-size="10" fill="#7dd3fc" fill-opacity="0.85" opacity="0"><animate attributeName="opacity" from="0" to="1" dur="0.6s" begin="1.3s" fill="freeze"/>Jun</text><text x="782.5" y="298" text-anchor="middle" font-family="'Segoe UI','Helvetica Neue',Helvetica,Arial,sans-serif" font-size="10" fill="#7dd3fc" fill-opacity="0.85" opacity="0"><animate attributeName="opacity" from="0" to="1" dur="0.6s" begin="1.4s" fill="freeze"/>Jul</text><text x="837.1" y="298" text-anchor="middle" font-family="'Segoe UI','Helvetica Neue',Helvetica,Arial,sans-serif" font-size="10" fill="#7dd3fc" fill-opacity="0.85" opacity="0"><animate attributeName="opacity" from="0" to="1" dur="0.6s" begin="1.5s" fill="freeze"/>Aug</text><text x="905.4" y="298" text-anchor="middle" font-family="'Segoe UI','Helvetica Neue',Helvetica,Arial,sans-serif" font-size="10" fill="#7dd3fc" fill-opacity="0.85" opacity="0"><animate attributeName="opacity" from="0" to="1" dur="0.6s" begin="1.6s" fill="freeze"/>Sep</text><path d="M250.0,276.0 C252.3,276.0 259.1,276.0 263.7,276.0 C268.2,276.0 272.8,276.0 277.3,276.0 C281.9,276.0 286.4,276.0 291.0,276.0 C295.5,276.0 300.1,276.0 304.6,276.0 C309.2,276.0 313.7,276.0 318.3,276.0 C322.8,276.0 327.4,276.0 331.9,276.0 C336.5,276.0 341.0,276.0 345.6,276.0 C350.1,276.0 354.7,276.0 359.2,276.0 C363.8,276.0 368.3,276.0 372.9,276.0 C377.4,276.0 382.0,276.0 386.5,276.0 C391.1,276.0 395.6,276.0 400.2,276.0 C404.7,276.0 409.3,276.0 413.8,276.0 C418.4,276.0 422.9,276.0 427.5,276.0 C432.1,276.0 436.6,276.0 441.2,276.0 C445.7,276.0 450.3,276.0 454.8,276.0 C459.4,276.0 463.9,276.0 468.5,276.0 C473.0,276.0 477.6,276.0 482.1,276.0 C486.7,276.0 491.2,276.0 495.8,276.0 C500.3,276.0 504.9,276.0 509.4,276.0 C514.0,276.0 518.5,276.0 523.1,276.0 C527.6,276.0 532.2,276.0 536.7,276.0 C541.3,276.0 545.8,276.0 550.4,276.0 C554.9,276.0 559.5,281.2 564.0,276.0 C568.6,270.8 573.1,245.6 577.7,244.5 C582.2,243.4 586.8,264.0 591.3,269.2 C595.9,274.5 600.4,278.6 605.0,276.0 C609.6,273.4 614.1,253.5 618.7,253.5 C623.2,253.5 627.8,272.2 632.3,276.0 C636.9,279.8 641.4,276.0 646.0,276.0 C650.5,276.0 655.1,276.0 659.6,276.0 C664.2,276.0 668.7,278.6 673.3,276.0 C677.8,273.4 682.4,261.0 686.9,260.2 C691.5,259.5 696.0,268.9 700.6,271.5 C705.1,274.1 709.7,275.2 714.2,276.0 C718.8,276.8 723.3,276.0 727.9,276.0 C732.4,276.0 737.0,276.0 741.5,276.0 C746.1,276.0 750.6,276.0 755.2,276.0 C759.7,276.0 764.3,276.0 768.8,276.0 C773.4,276.0 777.9,276.0 782.5,276.0 C787.1,276.0 791.6,276.0 796.2,276.0 C800.7,276.0 805.3,276.8 809.8,276.0 C814.4,275.2 818.9,271.5 823.5,271.5 C828.0,271.5 832.6,275.2 837.1,276.0 C841.7,276.8 846.2,276.0 850.8,276.0 C855.3,276.0 859.9,278.6 864.4,276.0 C869.0,273.4 873.5,264.4 878.1,260.2 C882.6,256.1 887.2,274.9 891.7,251.2 C896.3,227.6 900.8,136.1 905.4,118.5 C909.9,100.9 914.5,129.4 919.0,145.5 C923.6,161.6 928.1,203.2 932.7,215.2 C937.2,227.2 941.8,219.8 946.3,217.5 C950.9,215.2 957.7,204.4 960.0,201.8 L960,276 L250,276 Z" fill="url(#acar)" opacity="0"><animate attributeName="opacity" from="0" to="1" dur="1.6s" begin="1.6s" fill="freeze"/></path><g clip-path="url(#acr)"><path d="M250.0,276.0 C252.3,276.0 259.1,276.0 263.7,276.0 C268.2,276.0 272.8,276.0 277.3,276.0 C281.9,276.0 286.4,276.0 291.0,276.0 C295.5,276.0 300.1,276.0 304.6,276.0 C309.2,276.0 313.7,276.0 318.3,276.0 C322.8,276.0 327.4,276.0 331.9,276.0 C336.5,276.0 341.0,276.0 345.6,276.0 C350.1,276.0 354.7,276.0 359.2,276.0 C363.8,276.0 368.3,276.0 372.9,276.0 C377.4,276.0 382.0,276.0 386.5,276.0 C391.1,276.0 395.6,276.0 400.2,276.0 C404.7,276.0 409.3,276.0 413.8,276.0 C418.4,276.0 422.9,276.0 427.5,276.0 C432.1,276.0 436.6,276.0 441.2,276.0 C445.7,276.0 450.3,276.0 454.8,276.0 C459.4,276.0 463.9,276.0 468.5,276.0 C473.0,276.0 477.6,276.0 482.1,276.0 C486.7,276.0 491.2,276.0 495.8,276.0 C500.3,276.0 504.9,276.0 509.4,276.0 C514.0,276.0 518.5,276.0 523.1,276.0 C527.6,276.0 532.2,276.0 536.7,276.0 C541.3,276.0 545.8,276.0 550.4,276.0 C554.9,276.0 559.5,281.2 564.0,276.0 C568.6,270.8 573.1,245.6 577.7,244.5 C582.2,243.4 586.8,264.0 591.3,269.2 C595.9,274.5 600.4,278.6 605.0,276.0 C609.6,273.4 614.1,253.5 618.7,253.5 C623.2,253.5 627.8,272.2 632.3,276.0 C636.9,279.8 641.4,276.0 646.0,276.0 C650.5,276.0 655.1,276.0 659.6,276.0 C664.2,276.0 668.7,278.6 673.3,276.0 C677.8,273.4 682.4,261.0 686.9,260.2 C691.5,259.5 696.0,268.9 700.6,271.5 C705.1,274.1 709.7,275.2 714.2,276.0 C718.8,276.8 723.3,276.0 727.9,276.0 C732.4,276.0 737.0,276.0 741.5,276.0 C746.1,276.0 750.6,276.0 755.2,276.0 C759.7,276.0 764.3,276.0 768.8,276.0 C773.4,276.0 777.9,276.0 782.5,276.0 C787.1,276.0 791.6,276.0 796.2,276.0 C800.7,276.0 805.3,276.8 809.8,276.0 C814.4,275.2 818.9,271.5 823.5,271.5 C828.0,271.5 832.6,275.2 837.1,276.0 C841.7,276.8 846.2,276.0 850.8,276.0 C855.3,276.0 859.9,278.6 864.4,276.0 C869.0,273.4 873.5,264.4 878.1,260.2 C882.6,256.1 887.2,274.9 891.7,251.2 C896.3,227.6 900.8,136.1 905.4,118.5 C909.9,100.9 914.5,129.4 919.0,145.5 C923.6,161.6 928.1,203.2 932.7,215.2 C937.2,227.2 941.8,219.8 946.3,217.5 C950.9,215.2 957.7,204.4 960.0,201.8" fill="none" stroke="url(#acln)" stroke-width="3" stroke-linecap="round" stroke-linejoin="round"/></g><g opacity="0"><animate attributeName="opacity" from="0" to="1" dur="0.6s" begin="3.0s" fill="freeze"/><circle cx="905.4" cy="118.5" r="12" fill="url(#acgl)"><animate attributeName="r" values="9;16;9" dur="2.4s" repeatCount="indefinite"/></circle><circle cx="905.4" cy="118.5" r="4.5" fill="#fff"/><rect x="847.4" y="84.5" width="116" height="22" rx="11" fill="#ffffff"/><text x="905.4" y="99.5" text-anchor="middle" font-family="'Segoe UI','Helvetica Neue',Helvetica,Arial,sans-serif" font-size="11" font-weight="800" fill="#0c4a6e">Peak week · 70</text></g><circle r="5" fill="#ffffff" opacity="0"><animate attributeName="opacity" values="0;1;1;0" keyTimes="0;0.02;0.95;1" dur="7s" begin="3.4s" repeatCount="indefinite"/><animateMotion dur="7s" begin="3.4s" repeatCount="indefinite" path="M250.0,276.0 C252.3,276.0 259.1,276.0 263.7,276.0 C268.2,276.0 272.8,276.0 277.3,276.0 C281.9,276.0 286.4,276.0 291.0,276.0 C295.5,276.0 300.1,276.0 304.6,276.0 C309.2,276.0 313.7,276.0 318.3,276.0 C322.8,276.0 327.4,276.0 331.9,276.0 C336.5,276.0 341.0,276.0 345.6,276.0 C350.1,276.0 354.7,276.0 359.2,276.0 C363.8,276.0 368.3,276.0 372.9,276.0 C377.4,276.0 382.0,276.0 386.5,276.0 C391.1,276.0 395.6,276.0 400.2,276.0 C404.7,276.0 409.3,276.0 413.8,276.0 C418.4,276.0 422.9,276.0 427.5,276.0 C432.1,276.0 436.6,276.0 441.2,276.0 C445.7,276.0 450.3,276.0 454.8,276.0 C459.4,276.0 463.9,276.0 468.5,276.0 C473.0,276.0 477.6,276.0 482.1,276.0 C486.7,276.0 491.2,276.0 495.8,276.0 C500.3,276.0 504.9,276.0 509.4,276.0 C514.0,276.0 518.5,276.0 523.1,276.0 C527.6,276.0 532.2,276.0 536.7,276.0 C541.3,276.0 545.8,276.0 550.4,276.0 C554.9,276.0 559.5,281.2 564.0,276.0 C568.6,270.8 573.1,245.6 577.7,244.5 C582.2,243.4 586.8,264.0 591.3,269.2 C595.9,274.5 600.4,278.6 605.0,276.0 C609.6,273.4 614.1,253.5 618.7,253.5 C623.2,253.5 627.8,272.2 632.3,276.0 C636.9,279.8 641.4,276.0 646.0,276.0 C650.5,276.0 655.1,276.0 659.6,276.0 C664.2,276.0 668.7,278.6 673.3,276.0 C677.8,273.4 682.4,261.0 686.9,260.2 C691.5,259.5 696.0,268.9 700.6,271.5 C705.1,274.1 709.7,275.2 714.2,276.0 C718.8,276.8 723.3,276.0 727.9,276.0 C732.4,276.0 737.0,276.0 741.5,276.0 C746.1,276.0 750.6,276.0 755.2,276.0 C759.7,276.0 764.3,276.0 768.8,276.0 C773.4,276.0 777.9,276.0 782.5,276.0 C787.1,276.0 791.6,276.0 796.2,276.0 C800.7,276.0 805.3,276.8 809.8,276.0 C814.4,275.2 818.9,271.5 823.5,271.5 C828.0,271.5 832.6,275.2 837.1,276.0 C841.7,276.8 846.2,276.0 850.8,276.0 C855.3,276.0 859.9,278.6 864.4,276.0 C869.0,273.4 873.5,264.4 878.1,260.2 C882.6,256.1 887.2,274.9 891.7,251.2 C896.3,227.6 900.8,136.1 905.4,118.5 C909.9,100.9 914.5,129.4 919.0,145.5 C923.6,161.6 928.1,203.2 932.7,215.2 C937.2,227.2 941.8,219.8 946.3,217.5 C950.9,215.2 957.7,204.4 960.0,201.8"/></circle></svg>